<?xml version="1.0" encoding="utf-8"?>
<!-- Generator: Adobe Illustrator 16.0.0, SVG Export Plug-In . SVG Version: 6.00 Build 0)  -->
<!DOCTYPE svg PUBLIC "-//W3C//DTD SVG 1.1//EN" "http://www.w3.org/Graphics/SVG/1.1/DTD/svg11.dtd">
<svg version="1.1" xmlns="http://www.w3.org/2000/svg" xmlns:xlink="http://www.w3.org/1999/xlink" x="0px" y="0px" width="800px"
	 height="800px" viewBox="0 0 800 800" enable-background="new 0 0 800 800" xml:space="preserve">
<g id="Layer_2">
</g>
<g id="Layer_1">
	<circle stroke="#000000" stroke-miterlimit="10" cx="400" cy="400" r="340"/>
	<circle fill="none" stroke="#FFFFFF" stroke-width="10" stroke-miterlimit="10" cx="400" cy="400" r="295"/>
	<circle fill="none" stroke="#FFFFFF" stroke-width="10" stroke-miterlimit="10" cx="400" cy="400" r="260"/>
	<circle fill="none" stroke="#FFFFFF" stroke-width="10" stroke-miterlimit="10" cx="400" cy="400" r="225"/>
	<circle fill="none" stroke="#FFFFFF" stroke-width="10" stroke-miterlimit="10" cx="400" cy="400" r="190"/>
	<g>
		<g>
			<path d="M399.5,400L105.862,570.617C164.738,671.898,274.411,740,400,740c125.41,0,234.945-67.908,293.883-168.949L399.5,400z"/>
		</g>
	</g>
	<g>
		<g>
			<path d="M399.5,399.195l293.638-170.618C634.262,127.297,524.589,59.195,399,59.195c-125.41,0-234.945,67.909-293.882,168.95
				L399.5,399.195z"/>
		</g>
	</g>
	<circle fill="none" stroke="#FFFFFF" stroke-width="20" stroke-miterlimit="10" cx="400" cy="400" r="130"/>
	<circle fill="#FFFFFF" cx="400" cy="400" r="25"/>
</g>
</svg>
